HIERARCHY
ROOT Hips
{
	OFFSET 0.000000 0.000000 0.000000
	CHANNELS 6 Xposition Yposition Zposition Xrotation Yrotation Zrotation
	JOINT LeftUpLeg_virtual
	{
		OFFSET 0.000000 0.000000 0.000000
		CHANNELS 3 Xrotation Yrotation Zrotation
		JOINT LeftUpLeg
		{
			OFFSET 15.427100 -6.655098 0.678600
			CHANNELS 3 Xrotation Yrotation Zrotation
			JOINT LeftLeg
			{
				OFFSET 4.081073 -39.591068 13.024000
				CHANNELS 3 Xrotation Yrotation Zrotation
				JOINT LeftFoot
				{
					OFFSET -4.081074 -37.707932 -15.979700
					CHANNELS 3 Xrotation Yrotation Zrotation
					JOINT LeftToeBase
					{
						OFFSET 5.346399 -15.068900 20.645000
						CHANNELS 3 Xrotation Yrotation Zrotation
						JOINT LeftToe_End
						{
							OFFSET 2.754700 0.931300 11.300900
							CHANNELS 3 Xrotation Yrotation Zrotation
							End Site
							{
								OFFSET 0 0 0
							}
						}
					}
				}
			}
		}
	}
	JOINT RightUpLeg_virtual
	{
		OFFSET 0.000000 0.000000 0.000000
		CHANNELS 3 Xrotation Yrotation Zrotation
		JOINT RightUpLeg
		{
			OFFSET -15.569500 -6.655098 0.678600
			CHANNELS 3 Xrotation Yrotation Zrotation
			JOINT RightLeg
			{
				OFFSET -4.081825 -39.591045 13.023800
				CHANNELS 3 Xrotation Yrotation Zrotation
				JOINT RightFoot
				{
					OFFSET 4.081824 -37.707954 -15.979600
					CHANNELS 3 Xrotation Yrotation Zrotation
					JOINT RightToeBase
					{
						OFFSET -5.346400 -15.068900 20.645000
						CHANNELS 3 Xrotation Yrotation Zrotation
						JOINT RightToe_End
						{
							OFFSET -2.754700 0.931300 11.300900
							CHANNELS 3 Xrotation Yrotation Zrotation
							End Site
							{
								OFFSET 0 0 0
							}
						}
					}
				}
			}
		}
	}
	JOINT Spine_virtual
	{
		OFFSET 0.000000 0.000000 0.000000
		CHANNELS 3 Xrotation Yrotation Zrotation
		JOINT Spine
		{
			OFFSET -0.279200 12.230698 -2.892100
			CHANNELS 3 Xrotation Yrotation Zrotation
			JOINT Spine1
			{
				OFFSET -0.232667 10.192268 -1.242267
				CHANNELS 3 Xrotation Yrotation Zrotation
				JOINT Spine1_split
				{
					OFFSET -0.232667 10.192268 -1.242267
					CHANNELS 3 Xrotation Yrotation Zrotation
					JOINT Spine2
					{
						OFFSET -0.232667 10.192268 -1.242267
						CHANNELS 3 Xrotation Yrotation Zrotation
						JOINT Neck_virtual
						{
							OFFSET 0.000000 0.000000 0.000000
							CHANNELS 3 Xrotation Yrotation Zrotation
							JOINT Neck
							{
								OFFSET -0.418800 17.814194 8.416900
								CHANNELS 3 Xrotation Yrotation Zrotation
								JOINT Head
								{
									OFFSET 0.000000 7.031097 3.806800
									CHANNELS 3 Xrotation Yrotation Zrotation
									JOINT HeadTop_End
									{
										OFFSET 0.000000 24.646606 12.978600
										CHANNELS 3 Xrotation Yrotation Zrotation
										End Site
										{
											OFFSET 0 0 0
										}
									}
								}
							}
						}
						JOINT LeftShoulder_virtual
						{
							OFFSET 0.000000 0.000000 0.000000
							CHANNELS 3 Xrotation Yrotation Zrotation
							JOINT LeftShoulder
							{
								OFFSET 8.476499 7.247704 -3.868750
								CHANNELS 3 Xrotation Yrotation Zrotation
								JOINT LeftShoulder_split
								{
									OFFSET 8.476499 7.247704 -3.868750
									CHANNELS 3 Xrotation Yrotation Zrotation
									JOINT LeftArm
									{
										OFFSET 9.308998 -2.777710 0.208600
										CHANNELS 3 Xrotation Yrotation Zrotation
										JOINT LeftForeArm
										{
											OFFSET 29.972298 0.000000 0.000000
											CHANNELS 3 Xrotation Yrotation Zrotation
											JOINT LeftHand
											{
												OFFSET 26.026505 0.000000 0.000000
												CHANNELS 3 Xrotation Yrotation Zrotation
												End Site
												{
													OFFSET 0 0 0
												}
											}
										}
									}
								}
							}
						}
						JOINT RightShoulder_virtual
						{
							OFFSET 0.000000 0.000000 0.000000
							CHANNELS 3 Xrotation Yrotation Zrotation
							JOINT RightShoulder
							{
								OFFSET -7.570500 7.247704 -3.868750
								CHANNELS 3 Xrotation Yrotation Zrotation
								JOINT RightShoulder_split
								{
									OFFSET -7.570500 7.247704 -3.868750
									CHANNELS 3 Xrotation Yrotation Zrotation
									JOINT RightArm
									{
										OFFSET -9.308998 -2.777710 0.208500
										CHANNELS 3 Xrotation Yrotation Zrotation
										JOINT RightForeArm
										{
											OFFSET -29.972300 0.000000 0.000000
											CHANNELS 3 Xrotation Yrotation Zrotation
											JOINT RightHand
											{
												OFFSET -26.026505 0.000000 0.000000
												CHANNELS 3 Xrotation Yrotation Zrotation
												End Site
												{
													OFFSET 0 0 0
												}
											}
										}
									}
								}
							}
						}
					}
				}
			}
		}
	}
}
MOTION
Frames: 9
Frame Time: 0.03333333
203.633240 40.536804 -34.750336 0.000000 0.000000 0.000000 -130.103834 -17.754165 49.996780 -69.995403 -1.916498 6.275041 104.511668 -10.556635 -3.276216 2.072660 1.106464 7.525987 8.025946 -2.269460 3.538252 0.000000 0.000000 0.000000 -131.650134 -22.242257 47.053289 -84.840696 14.856128 17.768848 55.564880 5.580964 4.997597 -1.311557 6.491999 6.346576 -12.300851 0.499346 0.889630 0.000000 0.000000 0.000000 -137.750627 -20.224745 61.573636 8.792789 6.399628 6.454423 23.347140 4.389267 2.058270 -0.915982 1.296474 1.771638 0.000000 0.000000 0.000000 20.254620 4.916200 1.297633 53.204971 -3.843949 -9.925540 -22.599785 -16.126538 12.353601 0.000000 0.000000 0.000000 21.122445 6.463663 2.059505 2.550925 1.070343 5.003647 9.305487 -5.146708 0.860488 -32.626499 -21.041935 -6.739924 176.566742 -41.035958 179.611627 0.000000 0.000000 0.000000 18.164101 4.867893 2.629552 -1.251596 -3.822514 -1.300829 12.753189 -3.809398 7.060302 -77.226579 2.489903 46.333080 -164.583271 61.968073 159.123873 0.000000 0.000000 0.000000 
211.225159 35.402256 -36.035667 0.000000 0.000000 0.000000 -132.608806 -4.621917 61.356873 -68.388587 10.974155 9.935551 100.840940 -3.624354 -3.845150 -2.713178 7.023668 9.967540 8.314043 -2.742305 3.300329 0.000000 0.000000 0.000000 -132.857069 -10.715045 54.324084 -86.193429 14.599021 16.281136 61.469107 5.241055 6.821900 -7.198796 7.434476 10.718398 -12.591131 1.012978 -0.260216 0.000000 0.000000 0.000000 -139.532992 -10.765368 71.012118 9.718974 3.971497 5.549561 22.610084 4.751139 2.675462 -0.464223 -0.140078 2.020886 0.000000 0.000000 0.000000 19.298952 5.454984 1.983613 51.832892 -3.359956 -12.035396 -18.807086 -12.950465 13.618885 0.000000 0.000000 0.000000 21.066641 6.424420 2.524749 1.872559 3.194394 2.954376 9.361709 -4.943763 -0.662980 -20.397936 -24.735877 -10.818192 174.129403 -45.889186 177.641978 0.000000 0.000000 0.000000 17.678927 5.185464 3.654498 -1.895039 -4.912629 -3.292121 12.118403 0.908950 5.167809 -61.761186 -3.772532 43.986989 -155.211486 73.273969 150.448468 0.000000 0.000000 0.000000 
218.800278 30.568851 -37.225266 0.000000 0.000000 0.000000 -137.632888 6.416297 75.159422 -69.128338 27.831443 14.440050 97.621988 5.124241 -3.722096 -7.399082 11.808694 14.140471 7.012672 -3.114394 3.345910 0.000000 0.000000 0.000000 -135.261364 -0.005602 63.158165 -85.239859 12.797037 13.800711 65.555657 4.616235 8.911624 -13.129195 6.212349 14.744497 -13.355103 1.224495 -1.624246 0.000000 0.000000 0.000000 -142.915957 -2.111872 81.827934 10.844217 1.969380 4.188343 21.571110 5.114539 3.022615 -0.304387 -1.369562 1.974942 0.000000 0.000000 0.000000 18.920100 5.924517 2.473336 49.390792 -2.394817 -12.630887 -16.868513 -11.293086 14.741695 0.000000 0.000000 0.000000 21.199623 6.429617 2.810805 1.276488 3.890695 -0.001991 9.275666 -2.976586 -0.137478 -12.289739 -26.163617 -13.721498 171.738946 -52.796263 174.652459 0.000000 0.000000 0.000000 17.374128 5.514132 4.534865 -2.370043 -4.288485 -4.189844 11.190170 6.076105 3.693446 -48.258384 -4.935009 42.350137 -66.442905 83.336702 62.583343 0.000000 0.000000 0.000000 
226.224121 26.746868 -38.106697 0.000000 0.000000 0.000000 -144.294973 14.843464 90.233103 -72.581873 43.103060 18.586265 96.500485 12.914264 -3.205764 -10.542341 13.834738 19.184620 3.978300 -3.418686 3.880315 0.000000 0.000000 0.000000 -138.840056 8.906914 72.853892 -81.673995 10.712724 10.856955 67.574852 3.323528 11.106346 -18.207392 3.243806 16.439463 -13.633041 1.068122 -2.493416 0.000000 0.000000 0.000000 -147.938865 5.560416 94.294238 12.032492 0.796267 2.544903 20.393143 5.522717 3.041031 -0.576352 -1.922038 1.656563 0.000000 0.000000 0.000000 19.087585 6.406522 2.639951 45.730446 -0.688866 -11.104824 -17.465176 -11.168303 15.902291 0.000000 0.000000 0.000000 21.358737 6.635810 2.844375 0.743517 3.148682 -2.951814 8.498805 -1.170165 1.754746 -6.771313 -25.426670 -15.676671 169.108367 -60.702241 170.564030 0.000000 0.000000 0.000000 17.110245 5.850155 5.098988 -2.731667 -2.846453 -4.131299 11.039757 10.606517 2.145413 -38.264318 -2.967292 39.959646 -11.450106 67.079855 8.674270 0.000000 0.000000 0.000000 
233.940475 24.565849 -39.435921 0.000000 0.000000 0.000000 -152.230874 19.898904 105.048979 -76.830332 53.179826 20.919396 98.375180 16.317382 -3.495347 -11.798743 12.061905 22.809075 -1.144920 -3.675011 4.859812 0.000000 0.000000 0.000000 -144.581048 15.499359 83.929590 -76.729915 8.820461 8.294214 68.234464 1.818482 12.613735 -21.306309 0.480846 15.518019 -12.799568 0.841623 -2.548466 0.000000 0.000000 0.000000 -154.805199 11.295505 107.200359 12.957087 0.636216 0.957842 19.198104 6.038681 2.884522 -0.909710 -2.174148 1.821382 0.000000 0.000000 0.000000 19.706494 6.875989 2.449322 40.597097 1.588323 -7.920238 -20.513090 -11.798735 16.901820 0.000000 0.000000 0.000000 21.389429 7.089151 2.678497 0.198490 1.053533 -5.174795 5.996992 0.189362 2.575119 -2.497068 -23.668748 -16.821670 165.252602 -68.417240 164.789993 0.000000 0.000000 0.000000 16.878944 6.237658 5.311267 -2.926033 -1.282797 -3.285570 11.331654 13.066408 0.102635 -32.228340 -0.435601 37.053373 -3.845116 50.463794 2.221923 0.000000 0.000000 0.000000 
241.891571 24.395554 -40.637199 0.000000 0.000000 0.000000 -160.535837 22.262877 118.188760 -74.509017 57.844961 15.708264 101.810848 14.442840 -5.990089 -13.645111 6.286448 26.052059 -6.733618 -4.030666 5.488454 0.000000 0.000000 0.000000 -152.032689 20.251984 96.218992 -73.022099 8.350318 6.442887 68.456555 0.859883 13.055388 -20.477532 -1.152011 14.139053 -13.024127 0.750033 -1.826847 0.000000 0.000000 0.000000 -162.897621 14.729467 120.015726 13.622624 1.410044 -0.402133 18.313037 6.587239 2.676006 -1.271993 -2.294905 2.124269 0.000000 0.000000 0.000000 20.789720 7.355922 2.032778 34.107926 4.096201 -4.600039 -25.541957 -12.036369 17.488817 0.000000 0.000000 0.000000 21.367555 7.657962 2.516253 -0.360714 -1.623862 -6.367271 3.535994 1.738365 1.016939 1.960538 -21.900324 -16.452242 158.346092 -75.449138 155.825903 0.000000 0.000000 0.000000 16.722955 6.620939 5.329593 -2.983710 -0.073022 -2.211450 12.108667 14.162337 -2.560395 -31.227478 0.376574 34.885625 -1.098700 38.918916 0.535792 0.000000 0.000000 0.000000 
249.845856 25.699970 -41.054344 0.000000 0.000000 0.000000 -168.501737 22.669094 129.107623 -60.492363 55.335515 0.048110 103.539965 6.154669 -9.780830 -17.214341 -3.267134 27.038675 -12.930914 -4.597988 6.053260 0.000000 0.000000 0.000000 -160.654710 23.216453 108.955143 -72.950764 10.179042 5.127348 70.109809 1.501367 11.753266 -14.052724 -0.635243 15.021808 -15.501871 1.008831 -0.733716 0.000000 0.000000 0.000000 -171.229455 15.862769 132.066325 13.936286 2.759732 -1.278374 17.825868 7.178362 2.530184 -1.364432 -2.034732 2.498226 0.000000 0.000000 0.000000 22.186611 7.846049 1.591129 26.979205 7.038804 -3.099226 -31.841700 -10.542174 17.366267 0.000000 0.000000 0.000000 21.617742 8.208531 2.475732 -0.882197 -4.327357 -6.533878 2.062045 4.034499 -1.921606 5.990560 -20.926622 -14.844443 138.213577 -81.970821 134.038269 0.000000 0.000000 0.000000 16.708509 6.961924 5.285574 -2.907588 1.025522 -1.349532 12.939407 14.167814 -4.929643 -34.850501 -0.967909 34.208241 0.170354 32.780892 0.169105 0.000000 0.000000 0.000000 
257.201324 27.559887 -41.609779 0.000000 0.000000 0.000000 -176.073179 21.414303 138.217976 -41.810819 43.639510 -16.382233 101.725668 -7.266756 -15.390940 -24.020078 -15.332132 26.563195 -18.303777 -5.662710 6.705420 0.000000 0.000000 0.000000 -169.737468 24.516243 121.960432 -76.969764 13.886384 4.623261 74.167317 3.424733 8.643942 -2.745550 2.250770 18.335370 -19.916683 1.448089 0.313789 0.000000 0.000000 0.000000 -178.693677 15.010196 142.392314 13.825394 4.274197 -1.517854 17.740378 7.719049 2.515100 -1.275195 -1.597762 2.752778 0.000000 0.000000 0.000000 23.727493 8.242088 1.303472 20.034258 10.590364 -4.745317 -37.868932 -6.197951 16.734787 0.000000 0.000000 0.000000 22.118929 8.571332 2.656509 -1.341221 -6.680741 -5.993966 0.942236 7.278512 -5.378800 7.628900 -20.817821 -12.703458 64.282045 -84.013745 59.206655 0.000000 0.000000 0.000000 16.960697 7.253764 5.272747 -2.618484 2.205479 -0.738561 12.665460 12.819696 -5.572428 -42.205921 -4.612244 34.771943 0.597265 30.586086 0.530101 0.000000 0.000000 0.000000 
263.862305 29.132286 -41.886345 0.000000 0.000000 0.000000 177.455008 19.322364 145.973601 -23.984981 23.715622 -24.867105 94.795915 -22.547404 -25.360463 -32.951985 -27.181211 26.515850 -22.973784 -7.700019 7.301350 0.000000 0.000000 0.000000 -177.982818 24.020406 134.209365 -84.102278 18.718190 4.635291 81.120852 5.100101 4.647932 10.494747 6.038524 22.405713 -23.971281 1.718774 1.026108 0.000000 0.000000 0.000000 175.320123 13.132500 151.433340 13.389139 5.406030 -1.188850 17.970451 8.089746 2.607510 -0.668448 -1.397093 1.874265 0.000000 0.000000 0.000000 25.022364 8.517881 1.315143 14.334325 14.906070 -9.650801 -42.629765 0.707790 15.951085 0.000000 0.000000 0.000000 22.883418 8.670562 2.984365 -1.750988 -7.859272 -5.323410 0.340182 10.502981 -7.935605 6.332910 -21.585722 -11.012539 24.636194 -77.443704 19.704440 0.000000 0.000000 0.000000 17.566347 7.412714 5.280292 -2.272612 3.630617 -0.635796 11.844263 10.537925 -4.715656 -50.990053 -9.364842 35.056591 0.534390 30.497761 1.320053 0.000000 0.000000 0.000000 
